<svg width="210" height="35" viewBox="0 0 210 35" fill="none" xmlns="http://www.w3.org/2000/svg">
<path d="M7.11176 29.3635C6.82376 29.3155 6.58376 29.2435 6.58376 28.8595V28.8115C6.94376 26.4355 9.53576 21.2995 10.6398 19.0915C9.84776 18.8995 9.05576 18.6355 8.31176 18.3475C8.07176 18.2755 7.99976 18.0835 7.99976 17.8915C7.99976 17.6515 8.16776 17.4115 8.45576 17.4115C8.52776 17.4115 8.57576 17.4115 8.64776 17.4355C9.43976 17.7475 10.2558 17.9875 11.0958 18.2035C13.5678 13.3075 16.4238 8.12354 18.0798 5.60354C18.1758 5.43554 18.3198 5.38754 18.4638 5.38754C18.7278 5.38754 18.9918 5.57954 18.9918 5.86754C18.9918 5.96354 18.9678 6.03554 18.8958 6.13154C17.2878 8.60354 14.5038 13.6195 12.0798 18.3955C13.2318 18.6115 14.4078 18.7315 15.5838 18.7315C20.0718 18.7315 24.3678 17.0035 26.5518 12.6115C27.2958 11.0995 27.6558 9.75554 27.6558 8.57954C27.6558 4.40354 23.1198 2.41154 17.7198 2.41154C11.0958 2.41154 3.41576 5.48354 1.61576 11.0275C1.54376 11.2675 1.35176 11.3635 1.15976 11.3635C0.895762 11.3635 0.655762 11.1715 0.655762 10.9075C0.655762 10.8355 0.655762 10.7875 0.679762 10.7155C2.62376 4.71554 10.7598 1.45154 17.7678 1.45154C24.1038 1.45154 28.6398 4.01954 28.6398 8.57954C28.6398 9.92354 28.2558 11.4355 27.4398 13.0435C25.0638 17.8195 20.4318 19.7155 15.5838 19.7155C14.2638 19.7155 12.9198 19.5715 11.6238 19.3075C10.5438 21.4915 7.90376 26.6515 7.56776 28.9555C7.51976 29.2195 7.32776 29.3635 7.11176 29.3635Z" fill="white"/>
<path d="M30.9681 14.8195C30.6801 14.8195 30.4881 14.5795 30.4881 14.3155C30.4881 14.1235 30.5841 13.9555 30.8001 13.8595L31.4241 13.6195C31.4961 13.5955 31.5441 13.5955 31.5921 13.5955C31.8801 13.5955 32.0721 13.8595 32.0721 14.0995C32.0721 14.2915 31.9761 14.4595 31.7361 14.5315L31.1361 14.7955C31.0641 14.8195 31.0161 14.8195 30.9681 14.8195ZM28.2081 22.2835C27.2961 22.2595 26.8881 21.9235 26.8881 21.1555C26.9361 19.8595 28.1841 18.0835 29.1201 16.7155C29.2161 16.5715 29.3601 16.4995 29.4801 16.4995C29.7681 16.4995 30.0081 16.7395 30.0081 16.9795C30.0081 17.0755 29.9841 17.1715 29.9121 17.2675C29.1921 18.3475 27.8961 20.1955 27.8721 21.0835V21.1315C27.8721 21.3235 28.0161 21.2995 28.2561 21.2995C30.7041 21.2995 36.7041 18.7795 40.0161 17.4835L40.2081 17.4355C40.5441 17.4355 40.6161 17.6515 40.6881 17.9635C40.6881 18.1315 40.5921 18.2995 40.3761 18.3955C36.8241 19.7875 30.8721 22.2835 28.2081 22.2835Z" fill="white"/>
<path d="M40.5844 34.4995C40.3204 34.4995 40.0564 34.3075 40.0564 34.0435C40.0564 33.9715 40.0805 33.8995 40.1045 33.8275C43.4165 26.0515 47.3764 18.0355 51.1204 11.1715L44.4244 11.1235C40.6085 18.0595 36.5285 26.3395 33.1684 34.2115C33.0724 34.4035 32.9044 34.4995 32.7365 34.4995C32.4725 34.4995 32.2085 34.3075 32.2085 34.0435C32.2085 33.9715 32.2325 33.8995 32.2565 33.8275C35.5924 26.0515 39.5524 17.9875 43.3204 11.0995L30.8644 11.0515C30.5044 11.0515 30.3844 10.7875 30.3844 10.5475C30.3844 10.3075 30.5524 10.0675 30.8644 10.0675C32.9764 10.0675 38.1844 10.0915 43.8484 10.1395C45.2164 7.69154 46.3204 5.79554 47.0405 4.66754C47.1365 4.52354 47.2804 4.45154 47.4244 4.45154C47.6645 4.45154 47.9524 4.66754 47.9524 4.93154C47.9524 5.02754 47.9284 5.12354 47.8564 5.21954C47.1844 6.22754 46.1764 7.93154 44.9524 10.1395L51.6725 10.2115C53.0405 7.71554 54.1684 5.79554 54.8885 4.66754C54.9845 4.52354 55.1284 4.45154 55.2724 4.45154C55.5364 4.45154 55.8004 4.66754 55.8004 4.93154C55.8004 5.02754 55.7524 5.12354 55.7044 5.21954C55.0324 6.25154 54.0245 7.97954 52.7765 10.2115L63.6484 10.3315C63.9365 10.3555 64.1045 10.5715 64.1045 10.7875C64.1045 11.0515 64.0085 11.3155 63.6245 11.3155L52.2485 11.1955C48.4324 18.1075 44.3524 26.3635 41.0164 34.2115C40.9204 34.4035 40.7524 34.4995 40.5844 34.4995Z" fill="white"/>
<path d="M52.0932 23.7715C51.1332 23.7715 50.7732 23.3155 50.7012 22.6675C50.7012 21.4435 52.9812 20.5555 55.8852 19.7155L56.0292 19.6675C54.6852 19.1635 52.5252 19.0915 52.2852 18.1555L52.2372 17.9395C52.3332 17.0035 53.5812 16.4995 55.3812 15.9955C56.3172 15.7315 57.2772 15.5635 57.9012 15.5635C58.4292 15.6115 58.6452 15.6115 58.9332 15.8995C59.1012 16.0675 59.2212 16.2595 59.2212 16.4755C59.1492 17.1955 58.6452 17.7955 57.8292 18.2275C57.7572 18.2755 57.6612 18.2755 57.5892 18.2755C57.3252 18.2755 57.1092 18.0835 57.1092 17.8195C57.1092 17.6275 57.2052 17.4595 57.3732 17.3635C57.8052 17.1235 58.0212 16.8835 58.2132 16.5715L57.9252 16.5235C57.0132 16.5235 55.0452 17.0275 53.8692 17.5555C53.5572 17.6995 53.3412 17.8435 53.2692 17.9155C53.6292 18.1555 56.5812 18.4195 57.2772 19.3555C61.6212 18.2275 66.6612 17.4355 66.7812 17.4355C67.0692 17.4355 67.2852 17.6515 67.2852 17.9155C67.2852 18.2035 67.0692 18.4195 66.7812 18.4195C66.6612 18.4195 61.8132 19.2115 57.5652 20.2915C57.3492 21.8515 54.0852 23.7715 52.0932 23.7715ZM52.0932 22.7875C53.2212 22.7875 55.5972 21.6835 56.3652 20.6035C54.8772 21.1075 53.7252 21.3955 52.7172 21.8755C52.0692 22.2115 51.6852 22.4755 51.6852 22.6435C51.6852 22.7155 51.6852 22.7155 51.7332 22.7155C51.8292 22.7635 51.9492 22.7875 52.0932 22.7875Z" fill="white"/>
<path d="M82.9394 24.7555C79.7954 24.6595 77.3234 23.1715 77.3234 20.2915C77.3234 19.4995 77.5394 18.6115 78.0194 17.6275C79.1954 15.2035 81.6434 13.8595 84.2114 12.7075C83.9714 11.6755 83.8514 10.6195 83.8514 9.58754C83.8514 8.19554 84.0914 6.87554 84.5954 5.72354C85.4594 3.77954 87.2594 2.93954 88.9874 2.93954C91.1714 2.93954 93.2354 4.25954 93.2354 6.34754C93.2354 6.89954 93.0914 7.47554 92.8034 8.09954C91.5554 10.7155 88.3394 11.9635 85.3394 13.2595C86.0594 15.9235 87.4994 18.7315 89.3954 20.6275C91.6274 18.5155 93.6194 15.8275 95.1314 13.5235C95.2274 13.3795 95.3474 13.3075 95.4914 13.3075C95.7554 13.3075 96.0194 13.5235 96.0194 13.8355C96.0194 13.9075 95.9954 14.0035 95.9474 14.0755C94.4354 16.3795 92.3954 19.1155 90.1394 21.2755C91.0754 22.0195 92.1554 22.5475 93.2594 22.5475C93.6914 22.5475 94.1234 22.4755 94.5794 22.2835L94.7714 22.2355C95.0834 22.2355 95.2034 22.4515 95.2514 22.7635C95.2514 23.3635 93.9794 23.5315 93.2594 23.5315C91.8674 23.5315 90.5474 22.8835 89.3954 21.9475C87.4994 23.6275 85.4834 24.7555 82.9394 24.7555ZM82.9394 23.8435C85.1714 23.8435 86.9954 22.7395 88.6754 21.2755C86.7074 19.3075 85.1954 16.4275 84.4514 13.6675C82.0994 14.7475 79.9154 15.9715 78.9074 18.0595C78.5474 18.8035 78.3794 19.5235 78.3794 20.1475C78.3794 22.2355 80.1314 23.6515 82.4114 23.8195L82.9394 23.8435ZM85.1234 12.2995C87.9074 11.0995 90.8594 9.89954 91.9154 7.66754C92.1314 7.21154 92.2274 6.77954 92.2274 6.39554C92.2274 4.83554 90.6914 3.89954 89.0354 3.89954C87.6434 3.89954 86.1554 4.57154 85.4834 6.10754C85.0274 7.13954 84.8114 8.31554 84.8114 9.56354C84.8114 10.4515 84.9314 11.3875 85.1234 12.2995Z" fill="white"/>
<path d="M111.744 31.9555C110.88 31.8595 110.496 31.3795 110.496 30.4195C110.496 28.3555 112.632 24.2035 115.416 19.1875C114.432 18.9235 113.184 18.7555 111.624 18.7315C111.336 18.7315 111.144 18.4915 111.144 18.2275C111.144 18.0115 111.264 17.7955 111.528 17.7475C113.184 17.3635 115.032 17.0995 116.712 16.8835C119.232 12.4915 123.432 5.74754 123.432 2.57954C123.432 1.54754 122.88 1.18754 121.944 1.18754C119.28 1.18754 114.408 4.57154 111.144 7.90754C110.376 8.69954 107.952 11.3635 107.952 12.8275C107.952 13.3555 108.264 13.6915 109.296 13.7635C109.608 13.7875 109.752 14.0275 109.752 14.2435C109.752 14.5075 109.584 14.7475 109.272 14.7475C107.616 14.6755 106.992 13.8595 106.992 12.8755C106.992 11.0515 109.176 8.53154 110.448 7.23554C113.832 3.73154 119.04 0.227539 122.088 0.227539C123.624 0.227539 124.392 1.09154 124.392 2.55554C124.392 6.10754 120.384 12.3955 117.936 16.7395C119.616 16.5475 121.56 16.3795 122.952 16.3795C124.152 16.3795 124.872 16.4515 124.872 16.9315C124.824 17.2435 124.704 17.4595 124.392 17.4595C124.032 17.4355 123.696 17.3635 122.976 17.3635C121.416 17.3635 119.04 17.5795 117.336 17.7955L116.832 18.6595C118.848 19.5235 119.64 20.8915 119.64 22.4275C119.64 26.7235 113.688 31.9555 111.744 31.9555ZM115.896 18.3235L116.112 17.9635L115.056 18.1075L115.896 18.3235ZM111.84 30.9715C113.28 30.9715 118.656 26.0755 118.656 22.4755C118.656 21.2515 118.032 20.1955 116.376 19.5235C113.472 24.6595 111.48 28.7155 111.48 30.4195C111.48 30.7315 111.552 30.9235 111.744 30.9715H111.84Z" fill="white"/>
<path d="M125.42 22.3315C125.156 22.3315 124.892 22.1155 124.892 21.8515C124.892 21.7795 124.892 21.7075 124.94 21.6355C125.492 20.4835 126.98 17.6275 127.7 16.4515C127.82 16.2835 127.964 16.2115 128.108 16.2115C128.372 16.2115 128.612 16.4515 128.612 16.6915C128.612 16.7875 128.588 16.8595 128.54 16.9555C128.276 17.4115 127.916 18.0355 127.556 18.7315C128.828 17.5555 130.364 16.4515 131.756 15.6835C131.828 15.6355 131.924 15.6355 131.996 15.6355C132.284 15.6355 132.476 15.8755 132.476 16.1395C132.476 16.2115 132.452 16.3075 132.404 16.4035C132.14 16.8115 131.924 17.3155 131.924 17.7235C131.924 18.4915 132.884 18.7795 133.604 18.8515L134.3 18.8755C136.556 18.8755 139.22 18.2755 140.972 17.4835C141.044 17.4595 141.116 17.4355 141.188 17.4355C141.452 17.4355 141.668 17.6995 141.668 17.9395C141.668 18.1075 141.596 18.2755 141.38 18.3715C139.532 19.2355 136.724 19.8595 134.348 19.8595L133.532 19.8355C132.212 19.7395 130.94 19.0675 130.94 17.7715C130.94 17.6275 130.94 17.4835 130.988 17.3155C129.164 18.4915 126.908 20.4355 125.804 22.1155C125.684 22.2595 125.564 22.3315 125.42 22.3315Z" fill="white"/>
<path d="M143.281 14.8195C142.993 14.8195 142.801 14.5795 142.801 14.3155C142.801 14.1235 142.897 13.9555 143.113 13.8595L143.737 13.6195C143.809 13.5955 143.857 13.5955 143.905 13.5955C144.193 13.5955 144.385 13.8595 144.385 14.0995C144.385 14.2915 144.289 14.4595 144.049 14.5315L143.449 14.7955C143.377 14.8195 143.329 14.8195 143.281 14.8195ZM140.521 22.2835C139.609 22.2595 139.201 21.9235 139.201 21.1555C139.249 19.8595 140.497 18.0835 141.433 16.7155C141.529 16.5715 141.673 16.4995 141.793 16.4995C142.081 16.4995 142.321 16.7395 142.321 16.9795C142.321 17.0755 142.297 17.1715 142.225 17.2675C141.505 18.3475 140.209 20.1955 140.185 21.0835V21.1315C140.185 21.3235 140.329 21.2995 140.569 21.2995C143.017 21.2995 149.017 18.7795 152.329 17.4835L152.521 17.4355C152.857 17.4355 152.929 17.6515 153.001 17.9635C153.001 18.1315 152.905 18.2995 152.689 18.3955C149.137 19.7875 143.185 22.2835 140.521 22.2835Z" fill="white"/>
<path d="M153.161 22.3075C151.457 22.2835 150.809 21.6355 150.809 20.5795C150.809 19.2115 151.985 17.5315 153.113 16.5955C153.953 15.8995 154.745 15.6115 155.393 15.6115C156.233 15.6115 156.785 16.0915 156.785 16.7395C156.785 17.3155 156.353 18.0355 155.297 18.6355C154.577 19.0435 153.713 19.3075 153.041 19.3075C152.729 19.3075 152.465 19.2595 152.249 19.1395C151.961 19.6195 151.769 20.1235 151.769 20.5315C151.769 21.0835 152.129 21.2995 153.209 21.3235C156.425 21.3235 161.513 19.0435 164.609 17.4835C164.681 17.4355 164.753 17.4355 164.825 17.4355C165.089 17.4355 165.329 17.6995 165.329 17.9635C165.329 18.1075 165.233 18.2755 165.041 18.3715C161.801 20.0035 156.593 22.3075 153.161 22.3075ZM153.017 18.3475C153.521 18.3475 154.385 18.0355 154.793 17.7955C155.489 17.4115 155.777 17.0275 155.777 16.8115C155.777 16.6435 155.633 16.5475 155.393 16.5475C154.817 16.5475 153.689 17.1955 152.801 18.3235L153.017 18.3475Z" fill="white"/>
<path d="M170.313 22.3075C169.425 22.2595 169.089 21.8995 169.089 21.2515C169.089 20.0995 170.289 18.3235 170.529 17.5315C168.681 17.9155 164.913 22.3075 163.233 22.3075C162.705 22.2595 162.489 22.0435 162.489 21.5635L162.537 21.2035C162.801 20.0995 164.313 17.8675 164.745 17.1955C164.841 17.0275 164.985 16.9555 165.129 16.9555C165.417 16.9555 165.657 17.1715 165.657 17.4355C165.657 17.5315 165.633 17.6035 165.585 17.6995C165.177 18.3475 163.881 20.1715 163.545 21.2755C164.937 20.6515 168.705 16.7635 170.505 16.5475L170.745 16.5235C171.225 16.5235 171.513 16.8115 171.537 17.2915C171.537 18.1315 170.097 20.4115 170.097 21.1075C170.097 21.3235 170.193 21.3235 170.361 21.3235C172.017 21.3235 178.521 18.0835 179.721 17.5075C179.817 17.4595 179.889 17.4355 179.961 17.4355C180.225 17.4355 180.441 17.6755 180.441 17.9635C180.441 18.1075 180.345 18.2755 180.153 18.3715C178.329 19.3075 172.281 22.3075 170.313 22.3075Z" fill="white"/>
<path d="M185.238 22.3075C184.086 22.2835 183.726 21.5635 183.726 20.6035C183.726 19.3795 184.374 17.7235 184.806 16.7155C183.774 18.1075 181.182 21.5875 179.526 21.5875C178.59 21.5875 178.158 21.1315 178.158 20.3875C178.158 18.6835 180.942 15.7315 182.598 15.7315C183.27 15.7555 183.63 15.9475 183.894 16.3315C186.438 12.8515 188.526 9.13154 190.95 5.60354C191.046 5.45954 191.19 5.41154 191.334 5.41154C191.598 5.41154 191.838 5.62754 191.838 5.89154C191.838 5.96354 191.838 6.01154 191.79 6.08354C189.87 9.32354 184.734 17.2195 184.71 20.5315V20.6275C184.71 21.0595 184.878 21.3235 185.238 21.3235C186.654 21.3235 191.766 19.1395 194.574 17.4595C194.646 17.4115 194.742 17.3875 194.814 17.3875C195.054 17.3875 195.318 17.6035 195.318 17.8915C195.318 18.0595 195.246 18.2035 195.078 18.2995C192.126 20.0755 186.918 22.3075 185.238 22.3075ZM179.526 20.6275C180.342 20.6275 181.71 19.2115 183.246 17.2195C183.174 16.8835 183.006 16.7155 182.574 16.6915C181.422 16.6915 179.142 19.3075 179.142 20.2675C179.142 20.4835 179.238 20.6035 179.526 20.6275Z" fill="white"/>
<path d="M194.265 23.7715C193.305 23.7715 192.945 23.3155 192.873 22.6675C192.873 21.4435 195.153 20.5555 198.057 19.7155L198.201 19.6675C196.857 19.1635 194.697 19.0915 194.457 18.1555L194.409 17.9395C194.505 17.0035 195.753 16.4995 197.553 15.9955C198.489 15.7315 199.449 15.5635 200.073 15.5635C200.601 15.6115 200.817 15.6115 201.105 15.8995C201.273 16.0675 201.393 16.2595 201.393 16.4755C201.321 17.1955 200.817 17.7955 200.001 18.2275C199.929 18.2755 199.833 18.2755 199.761 18.2755C199.497 18.2755 199.281 18.0835 199.281 17.8195C199.281 17.6275 199.377 17.4595 199.545 17.3635C199.977 17.1235 200.193 16.8835 200.385 16.5715L200.097 16.5235C199.185 16.5235 197.217 17.0275 196.041 17.5555C195.729 17.6995 195.513 17.8435 195.441 17.9155C195.801 18.1555 198.753 18.4195 199.449 19.3555C203.793 18.2275 208.833 17.4355 208.953 17.4355C209.241 17.4355 209.457 17.6515 209.457 17.9155C209.457 18.2035 209.241 18.4195 208.953 18.4195C208.833 18.4195 203.985 19.2115 199.737 20.2915C199.521 21.8515 196.257 23.7715 194.265 23.7715ZM194.265 22.7875C195.393 22.7875 197.769 21.6835 198.537 20.6035C197.049 21.1075 195.897 21.3955 194.889 21.8755C194.241 22.2115 193.857 22.4755 193.857 22.6435C193.857 22.7155 193.857 22.7155 193.905 22.7155C194.001 22.7635 194.121 22.7875 194.265 22.7875Z" fill="white"/>
</svg>